{"title":"Aashiqui 2 2013 Hindi Movies DvDScr Sample Included Best Quality","uid":8416325,"size":737724416,"categoryP":"video","categoryS":"movies","magnet":"?xt=urn:btih:e8083e2dcf65f282a0bfa15bbc194289b88b44dd&amp;dn=Aashiqui+2+2013+Hindi+Movies+DvDScr+Sample+Included+Best+Quality&amp;tr=udp%3A%2F%2Ftracker.openbittorrent.com%3A80&amp;tr=udp%3A%2F%2Fopen.demonii.com%3A1337&amp;tr=udp%3A%2F%2Ftracker.coppersurfer.tk%3A6969&amp;tr=udp%3A%2F%2Fexodus.desync.com%3A6969","seeders":0,"leechers":0,"uploader":"basicssom","files":2,"time":1367050844,"description":"Aashiqui 2 2013 Hindi Movies DvDScr Sample Included Best Quality ~ rDX\n\nScreen Shots :\n &lt;a href=&quot;\nhttp://myimghosting.serveftp.com/13/Aashiqui2.html&quot; rel=&quot;nofollow&quot; target=&quot;_NEW&quot;&gt;\nhttp://myimghosting.serveftp.com/13/Aashiqui2.html&lt;/a&gt;\n &lt;a href=&quot;\nhttp://myimghost.cwahi.net/Aashiqui2.html&quot; rel=&quot;nofollow&quot; target=&quot;_NEW&quot;&gt;\nhttp://myimghost.cwahi.net/Aashiqui2.html&lt;/a&gt;\n\n\nFormat                                   : MPEG-PS\nFile size                                : 691 MiB\nDuration                                 : 2h 14mn\nOverall bit rate mode                    : Variable\nOverall bit rate                         : 717 Kbps\n\nVideo\nID                                       : 224 (0xE0)\nFormat                                   : MPEG Video\nFormat version                           : Version 2\nFormat profile                           : Main@Main\nFormat settings, BVOP                    : Yes\nFormat settings, Matrix                  : Default\nFormat settings, GOP                     : M=3, N=13\nDuration                                 : 2h 14mn\nBit rate mode                            : Variable\nBit rate                                 : 575 Kbps\nMaximum bit rate                         : 9 680 Kbps\nWidth                                    : 352 pixels\nHeight                                   : 288 pixels\nDisplay aspect ratio                     : 4:3\nFrame rate                               : 25.000 fps\nStandard                                 : PAL\nColor space                              : YUV\nChroma subsampling                       : 4:2:0\nBit depth                                : 8 bits\nScan type                                : Progressive\nCompression mode                         : Lossy\nBits/(Pixel*Frame)                       : 0.227\nStream size                              : 554 MiB (80%)\n\nAudio\nID                                       : 192 (0xC0)\nFormat                                   : MPEG Audio\nFormat version                           : Version 1\nFormat profile                           : Layer 2\nDuration                                 : 2h 14mn\nBit rate mode                            : Constant\nBit rate                                 : 128 Kbps\nChannel(s)                               : 2 channels\nSampling rate                            : 48.0 KHz\nCompression mode                         : Lossy\nStream size                              : 123 MiB (18%)\n\n","torrent":{"xt":"urn:btih:e8083e2dcf65f282a0bfa15bbc194289b88b44dd","amp;dn":"Aashiqui+2+2013+Hindi+Movies+DvDScr+Sample+Included+Best+Quality","amp;tr":["udp%3A%2F%2Ftracker.openbittorrent.com%3A80","udp%3A%2F%2Fopen.demonii.com%3A1337","udp%3A%2F%2Ftracker.coppersurfer.tk%3A6969","udp%3A%2F%2Fexodus.desync.com%3A6969"],"infoHash":"e8083e2dcf65f282a0bfa15bbc194289b88b44dd","infoHashBuffer":{"type":"Buffer","data":[232,8,62,45,207,101,242,130,160,191,161,91,188,25,66,137,184,139,68,221]},"announce":[],"urlList":[]}}